<svg id="Capa_1" xmlns="http://www.w3.org/2000/svg" version="1.1" viewBox="0 0 2048 2048"><rect width="2048" height="2048" rx="380" fill="#9b5cff"/><g fill="#ffffff">
  
  <g>
    <path d="M1496.09,1781.06l57.87.42c19.86.14,38.73-1.64,58.05-5.5,58.18-11.46,101.05-55.81,122.51-109.05l18.47,1.34-21.18,172.02-81.83.85-116.06-.53-225.07-.26c-.44-3.65-.52-7.14-.47-11.23,23.75-7.79,39.4-27.99,46.04-51.81,5.33-19.12,8.17-38.59,8.18-58.89l.24-422.2c.02-29.4-.84-62.09-11.96-88.76-7.03-16.86-21.98-27.27-40.37-27.77-.2-4.67-.17-8.64.13-12.96l71.43-18.82c101.35-26.7,253.25-34.46,357.55-17.59l5.17,38,14.35,114.18-18.39-2.18c-12.84-35.23-37.32-66.78-70.84-84.33-23.25-12.17-48.17-17.23-74.34-18.66-23.69-1.3-46.84-.52-70.34,3.21l-29.06,4.61-.02,248.02,62.56-3.5c15.41-.86,29.69-3.99,44.16-8.73,26.15-10.13,37.8-23.91,47-49.82l16.25,1.23.04,173.65-17.43.21c-5.5-20.62-18.44-36.24-37.5-45.62-31.64-15.97-79.73-10.92-115.09-8.17l-.04,288.66Z"/>
    <path d="M1660.2,824.52c27.85-4.89,47.92-8.45,66.03-31.37,13.13-16.61,19.94-36.79,21.18-58.05,1.3-22.24-.14-49.77-11.32-69.42-10.83-19.03-31.19-30.82-53.03-30.84l-40.33-.04.15,362.01c0,12.26,2.74,23.72,5.31,34.94,3.56,15.55,14.67,26.13,28.93,32.24,1.36,2.35.56,7.01-1.21,9.05-22.65-2.68-44.58-6.54-67.29-7.37-19.03-.7-37.55-.96-56.49.23l-35.25,2.21c-.93-2.79-1.17-5.91-.55-8.88,28.68-11.22,32.23-40.35,32.22-68.16l-.05-204.61-.39-139.41c-.02-7.2-3.61-14.71-6.22-20.9-4.24-10.06-13.92-14.93-24.55-16.6-.51-3.19-.29-6.47.72-9.96l116.87-6.19c27.84-1.48,54.35-.99,82,.89,74,5.02,128.94,42.27,129.88,121.69.25,21.08-2.79,40.27-11.63,59.45-11.08,24.02-28.25,44.14-52.21,55.68l-19.15,9.23c9.05,23.37,19.44,45.23,29.94,68.01l24.24,52.56,20.62,41.46c29.16,58.61,70.46,128.05,128.43,161.72,3.53,2.05,8.25,3.02,12.13,4.89.94,2.25,1,5.98.57,9.18-66.33,2.3-129.77-24.43-175.66-72.26-21.11-22-38.53-46.1-53.33-72.95-23.03-41.79-41.49-85.06-59.15-129.45l-31.41-78.95Z"/>
  </g>
  <path d="M1449.69,1013.23c16.29-14.09,31.5-38.08,35.6-59.21,4.01-.32,7.55-.33,11.83,0l-3.86,62.21-3.75,54.43c-76.14,10.63-148.19,28.7-221.56,51.06l-45.16,13.76c-1.3-2.74-1.8-7.91.03-9.79,13.12-10.13,21.45-23.54,24.99-39.93,2.26-10.45,4.33-20.69,4.33-32l-.04-333.56-.95-14.21c-1.31-19.54-2.99-47.96-30.16-48.07-.07-3.67.02-6.96.41-10.47l84.73-17.22,99.94-15.99,71.47-9.96,5.28,62.64c.98,11.65,1.9,22.09,1.64,33.81l-10,.77c-8.18-20.82-26.12-35.69-48.88-37.99-27.63-2.8-54.76,2.01-82.25,7.9l.6,72.63,1.17,84.85c18.64-4.35,36.26-8.02,54.22-13.45,14.32-4.34,25.19-14.52,28.86-28.91,3.83-.52,6.98-.69,10.54-.57l.62,99.49-11.13.14c-2.28-7.56-6.04-13.54-13.29-16.48-10.34-3.39-21.05-3.34-31.78-.96l-39.47,8.78.14,130.97,1.26,43.61,56.28-14.07c17.89-4.47,33.72-12.52,48.34-24.2Z"/>
  <path d="M638.22,1840.35c-2.59-2.64-1.83-7.3-.53-10.51,22.31-5.73,36.88-24.24,41.26-45.92,2.29-11.32,4.06-22.12,4.04-34.13l-.3-305.13c0-10.11-3.01-20.2-6.56-28.74-6.65-16.03-20.94-24.69-38.34-24.82-.98-3.21-1.02-7.03-.42-10.52l32.38-9.97,178.65-53.92,1.23,11.38c-28.67,16.72-41.07,47.51-42.85,79.86-.45,8.24-1.4,15.8-1.39,24.36l.34,323.49c.01,14.25,2.61,27.6,7.41,40.07,6.68,17.36,19.97,29.14,37.75,33.97.56,3.7.61,6.79-.02,10.51l-212.65.02Z"/>
  <g>
    <path d="M673.66,705.85c5.66,15.85,19.19,24,35.51,23.93.94,2.68,1.3,8.38-1.28,10.16l-63.06,18.92-96.75,27.51c-1.19-3.68-1.49-6.81-1.21-10.49,13.85-7.45,24.49-19.64,29.01-35.01,2.24-7.61,5.7-16,5.7-24.48l.09-470.81-37.68,1.44c-17.44.67-34.41,3.69-50.63,9.24-19.05,6.51-33.73,20.05-39.45,39.13-4.45.36-8.01.34-12.16-.38l10.51-95.6h152.61c4.28-.01,8.02-.54,12.27-.81l119.83.35,60.28.77,10.72,95.57c-4.8.51-8.54.4-12.75-.31-5.76-19.93-22.86-33.18-41.84-39.25-20.19-6.45-40.82-8.98-61.9-9.34l-25.11-.44.04,419.86c0,13.98,2.65,27.06,7.29,40.03Z"/>
    <g>
      <path d="M764.33,723.78c-.75-3.19-1.04-7.17-.69-10.14,4.14-2.89,8.64-5.44,11.45-9.42,10.17-14.38,14.39-30.61,14.38-48.39l-.2-268.7c0-7.09-3.61-13.69-5.3-20.07-3.23-12.16-13.1-14.78-24.08-17.26l.17-8.72,50.16-7.85c28.4-4.45,55.39-9.95,84.11-16.08.35,2.8.39,6.57.13,9.56-5.72,3.74-10.24,8.13-13.9,13.82-6.74,10.07-9.7,21.12-10.77,33.53l.13,103.02,95.62-30.69v-98.26c-.66-6.05-2.07-11.32-3.94-16.81-3.55-8.51-10.69-13.49-20.46-13.26l-.04-9.51,75-15.42,54.25-11.83.16,10.22c-17.74,7.57-26.16,31.87-26.15,49.61l.12,243.65c0,7.31,2.46,14.58,4.85,20.7,7.47,19.13,21.36,8.13,22.17,19.05.13,1.77-1,4.93-3.39,5.65l-127.38,38.22c-1.09-3.48-1.17-6.7-.89-10.4,10.05-4.85,16.19-13.51,19.56-23.67,3.02-7.64,5.46-14.96,6.29-23.38l-.14-119.95-95.58,31.33v117.56c-.02,8.83,2.1,16.67,5.99,24.15,4.75,6.72,11.34,9.69,20.41,9.28l-.39,10.43-41.92,12.38-89.71,27.68Z"/>
      <path d="M1202.42,551.37l41.63-8.12c15.41-3.01,29.87-7.2,42.7-16.53,15.78-11.47,26.79-27.01,31.54-46.08,3.45-.45,6.24-.59,10.1-.48l-7.12,89.99-28.99,5.26-64.19,12.87c-30.76,6.17-60.13,14.45-90.37,22.41l-37.99,10-.51-10.1c25.97-11.3,25.64-53.22,25.62-76.77l-.18-209.67c0-10.03-2.91-19.48-6.86-27.95-3.49-7.49-10.8-10.16-19.16-8.7-.56-3.64-.6-7.21.27-10.92l210.25-28.44,7.55,76.42-9.88.94c-2.38-6.33-5.34-11.02-9.85-15.5-20.47-20.33-50.18-16.32-76.83-11.86l-17.58,2.94v101.87s31.67-5.65,31.67-5.65c12.15-2.17,26.36-10.35,29.83-23.46,2.76-.8,6.46-.89,10.1-.39l.02,76.46c-2.05,1.77-8.11,2.88-9.55.88-2.39-3.3-3.94-6.17-6.04-9.65-12.24-9.79-39.32-.24-56.14,1.88l-.06,108.37Z"/>
    </g>
  </g>
  <g>
    <path d="M1104.34,1556.92l-46.71,8.61.3,169.32c.03,17.01,2.38,33.05,7.34,48.67,7.03,22.14,23.13,38.83,45.23,45.74l.17,11.01-57.32.35-102.35.04-72.05-.35.03-10.47c21.77-6.95,37.95-22.95,44.67-45.12,5.17-17.09,7.37-34.45,7.37-52.91l.13-337.58c.01-33.28-7.66-77.7-50.43-75.76-.9-4.04-.95-7.73-.35-12.42l68.33-22.5,141.34-46.65,182.34-59.06,17.72,139.63c-5.37,1.91-10.94,3.24-16.96,4.36-18.12-37.08-46.69-54.05-88.19-53.05-43.22,1.44-86.86,19.6-127.31,33.93l.02,209.63c25.97-4.45,50.5-9.9,74.91-17.67,18.7-5.96,34.6-16.19,47.04-31.03,6.31-8.62,10.87-17.53,12.66-28.17l15.75-2.32-.14,9.99-.05,150.45-14.11,2.08-4.49-10.05c-7.14-16-21.25-26.26-38.57-29.51-15.29-2.66-30.39-2.13-46.31.8Z"/>
    <path d="M1127.49,1166.95l-158.69,52.89c-7.31-11.78,6.77-11.9,15.8-30.11s11.58-38.07,11.58-58.92l-.04-372.57c-37.4,13.69-56.32,18.8-82.37,49.5-9.33,11.57-15.06,24.08-19.64,38.31-3.79.94-7.72,1.47-11.1,1.32l5.19-103.54,305.5-90.17,7.77,103.36-9.99,1.29c-5.41-19.46-26.08-34.96-45.63-36.16-23.51-1.45-34.08,1.88-57.14,8.45l.02,371.18c0,10.86,2.74,20.58,4.8,30.57,3.24,15.69,16.15,25.94,32.59,25.05,1.72,2.23,1.98,6.09,1.35,9.56Z"/>
  </g>
  <g>
    <path d="M944.52,1147.27l-4.44,60.74c-.57,7.82-.69,14.88-2.47,22.61l-146.44,45.6-131.74,38.91-46.95,13.48-139.54,38.19c-2.85-4.65-1.05-8.53,2.98-11.82,10.93-8.92,20.23-21.15,22.36-35.53,3.96-26.73-2.15-48.64-9.06-74.7l-38.67-145.76c-27.15,22.92-54.62,43.06-84.47,60.82-18.61,11.08-37.25,19.81-57.63,26.74l-26.36,8.76-19.47,90.22-11.57,55.59c-1.45,6.98-1.05,14.94-.06,21.89,3.5,24.46,20.86,38.57,44.28,42.32.38,3.02.52,5.48.31,8.39l-201.5,47.6c-1.44-2.62-1.84-5.7-1.56-8.93,33.18-19.73,56.33-64.19,67.82-100.08,10.26-32.06,18.21-63.95,26.09-96.94l54.42-227.73,61.96-261.4,15.95-70.39c5.61-24.78,1.41-61.9-27.71-68.9-.27-3.69-.27-6.97.09-10.53l149-.04,97.31,361.37c23.52-8.36,47.32-10.77,70.45.13,16.34,7.7,26.55,22.39,30.68,39.79,2.51,10.59,2.91,21.17-1.72,31.49-.62,1.38-4.81,1.74-6.07.69-1.55-13.69-7.9-26.94-20.85-32.97-19.5-9.09-42.05-5.84-60.05,6.46l52.75,190.96c3.48,12.61,8.12,23.64,12.26,35.9,8.6,25.51,27.71,46.2,53.44,55.96,22.86-22.08,27.01-36.55,30.18-68.34v-366.58c0-11.09-2.54-21.64-6.25-31.36-4.59-12.03-15.59-18.17-28.33-18.66-.66-3.24-.56-6.59.37-9.87l162.17-48.23c1.08,2.21.91,6.82-.12,9.29-23.03,13.51-31.4,36.43-34.05,62.03-.52,5.01-1.13,9.31-1.13,14.86l.03,361.47c0,6.07.63,10.54,1.89,16.06,57.17-15.62,105.61-28.43,133.08-85.79,4.34-9.05,7.69-17.87,9.92-27.8,2.98-1.61,6.9-1.75,10.67-.84l-2.24,34.89ZM405.84,1063.89l29.52-23.71-44.46-174.16-20.52-80.73-16.34,73.75-17.05,77.06-30.54,143.14-10.6,48.84c36.24-12.02,80.93-40.86,109.98-64.18Z"/>
    <path d="M617.76,1706.06l-15.95,134.3-317.06-.02-.25-8.86c6.16-2.94,11.63-5.34,17.42-8.66,18.84-10.8,21.63-42.96,21.62-62.57l-.14-229.07c0-12.6-3.16-24.95-9.42-35.18s-17.41-13.3-28.61-15.34c-.64-3.12-.7-6-.33-9.78l40.48-9.31,140.66-33.63c.95,2.93,1.28,6.58.88,10.05-27.78,14.73-33.5,38.99-35.37,68.03l-.98,15.21v272.97s40.27-.02,40.27-.02c12.26,0,23.79-1.43,35.81-3.35,46.94-8.97,80.18-40.32,96.43-84.75,4.72-.55,8.86-.56,14.55-.03Z"/>
  </g>
</g></svg>